<?xml version="1.0" encoding="UTF-8"?>
<!-- Generator: Adobe Illustrator 21.0.0, SVG Export Plug-In . SVG Version: 6.00 Build 0)  -->
<svg version="1.1" id="Layer_1" xmlns="http://www.w3.org/2000/svg" xmlns:xlink="http://www.w3.org/1999/xlink" x="0px" y="0px" viewBox="0 0 20 20" style="enable-background:new 0 0 20 20;" xml:space="preserve">
<style type="text/css">
	.st0{fill:#35424B;}
	.st1{fill:#344154;}
</style>
<g>
	<g>
		<g>
			<g>
				<path class="st0" d="M10.3,8.9c-2,0-3.7-1.9-3.7-4.2c0-2.3,1.7-4.2,3.7-4.2S14,2.4,14,4.7C14,7,12.3,8.9,10.3,8.9L10.3,8.9z       M10.3,1.3c-1.6,0-2.8,1.5-2.8,3.3C7.5,6.5,8.7,8,10.3,8c1.6,0,2.8-1.5,2.8-3.3C13.1,2.8,11.9,1.3,10.3,1.3L10.3,1.3z"/>
				<path class="st1" d="M10.3,9C8.2,9,6.5,7,6.5,4.7c0-2.4,1.7-4.3,3.8-4.3s3.8,1.9,3.8,4.3C14.1,7,12.4,9,10.3,9z M10.3,0.6      c-2,0-3.6,1.8-3.6,4.1c0,2.3,1.6,4.1,3.6,4.1s3.6-1.8,3.6-4.1C13.9,2.4,12.3,0.6,10.3,0.6z M10.3,8.1c-1.6,0-2.9-1.5-2.9-3.4      c0-1.9,1.3-3.4,2.9-3.4c1.6,0,2.9,1.5,2.9,3.4C13.2,6.6,11.9,8.1,10.3,8.1z M10.3,1.4c-1.5,0-2.7,1.5-2.7,3.2      c0,1.8,1.2,3.2,2.7,3.2c1.5,0,2.7-1.5,2.7-3.2C13,2.9,11.8,1.4,10.3,1.4z"/>
			</g>
		</g>
		<g>
			<g>
				<path class="st0" d="M16.5,19.5H3.9c-0.2,0-0.4-0.2-0.4-0.4l-0.3-4.1c-0.1-1.3,0.9-2.8,2.3-3.3c3.1-1.1,6.4-1.1,9.5,0      c1.5,0.5,2.3,2.2,2.3,3.3l-0.3,4.1C16.9,19.3,16.7,19.5,16.5,19.5L16.5,19.5z M4.3,18.7h11.8l0.2-3.7c0.1-0.8-0.7-2.1-1.7-2.5      c-2.9-1-6-1-8.9,0c-1,0.4-1.7,1.6-1.7,2.5L4.3,18.7L4.3,18.7z"/>
				<path class="st1" d="M16.5,19.6H3.9c-0.3,0-0.5-0.2-0.5-0.5l-0.3-4.1c-0.1-1.4,1-2.9,2.3-3.4c3.1-1.1,6.5-1.1,9.5,0      c1.5,0.5,2.4,2.2,2.3,3.4L17,19.1C17,19.4,16.8,19.6,16.5,19.6z M10.2,11c-1.6,0-3.2,0.3-4.7,0.8c-1.3,0.5-2.3,2-2.2,3.2      l0.3,4.1c0,0.2,0.2,0.3,0.3,0.3h12.6c0.2,0,0.3-0.1,0.3-0.3l0.3-4.1c0.1-1.1-0.8-2.7-2.2-3.2C13.4,11.3,11.8,11,10.2,11z       M16.2,18.7H4.3L4,15c-0.1-0.9,0.7-2.2,1.7-2.5c2.9-1,6.1-1,8.9,0c1.1,0.4,1.8,1.7,1.7,2.5L16.2,18.7z M4.4,18.6H16l0.2-3.6      c0.1-0.8-0.6-2-1.6-2.4c-2.8-1-6-1-8.8,0c-1,0.4-1.7,1.6-1.6,2.4L4.4,18.6z"/>
			</g>
		</g>
	</g>
</g>
</svg>