<?xml version="1.0" encoding="UTF-8"?>
<!-- Generator: Adobe Illustrator 21.0.0, SVG Export Plug-In . SVG Version: 6.00 Build 0)  -->
<svg version="1.1" id="Layer_1" xmlns="http://www.w3.org/2000/svg" xmlns:xlink="http://www.w3.org/1999/xlink" x="0px" y="0px" viewBox="0 0 20 20" style="enable-background:new 0 0 20 20;" xml:space="preserve">
<style type="text/css">
	.st0{fill:#35424B;}
</style>
<g>
	<path class="st0" d="M10.3,1.1c-4.2,0-7.6,3.4-7.6,7.6c0,4.1,7,10.1,7.3,10.4c0.1,0.1,0.2,0.1,0.3,0.1s0.2,0,0.3-0.1   c0.3-0.3,7.3-6.3,7.3-10.4C17.9,4.5,14.5,1.1,10.3,1.1z M17,8.7c0,3.3-5.5,8.3-6.7,9.4C9.1,17,3.6,11.9,3.6,8.7C3.6,5,6.6,2,10.3,2   C14,2,17,5,17,8.7z"/>
	<path class="st0" d="M10.3,5.1c-2,0-3.5,1.6-3.5,3.5s1.6,3.5,3.5,3.5c2,0,3.5-1.6,3.5-3.5S12.2,5.1,10.3,5.1z M12.9,8.7   c0,1.4-1.2,2.6-2.6,2.6s-2.6-1.2-2.6-2.6C7.7,7.2,8.8,6,10.3,6S12.9,7.2,12.9,8.7z"/>
</g>
</svg>