<?xml version="1.0" encoding="UTF-8" standalone="no"?>
<svg
   xmlns:dc="http://purl.org/dc/elements/1.1/"
   xmlns:cc="http://creativecommons.org/ns#"
   xmlns:rdf="http://www.w3.org/1999/02/22-rdf-syntax-ns#"
   xmlns:svg="http://www.w3.org/2000/svg"
   xmlns="http://www.w3.org/2000/svg"
   xmlns:sodipodi="http://sodipodi.sourceforge.net/DTD/sodipodi-0.dtd"
   xmlns:inkscape="http://www.inkscape.org/namespaces/inkscape"
   id="Layer_1"
   data-name="Layer 1"
   viewBox="0 0 20 20"
   version="1.1"
   sodipodi:docname="Artboard 1.svg"
   inkscape:version="0.92.1 r15371">
  <metadata
     id="metadata3708">
    <rdf:RDF>
      <cc:Work
         rdf:about="">
        <dc:format>image/svg+xml</dc:format>
        <dc:type
           rdf:resource="http://purl.org/dc/dcmitype/StillImage" />
      </cc:Work>
    </rdf:RDF>
  </metadata>
  <sodipodi:namedview
     pagecolor="#ffffff"
     bordercolor="#666666"
     borderopacity="1"
     objecttolerance="10"
     gridtolerance="10"
     guidetolerance="10"
     inkscape:pageopacity="0"
     inkscape:pageshadow="2"
     inkscape:window-width="1920"
     inkscape:window-height="1027"
     id="namedview3706"
     showgrid="false"
     inkscape:zoom="33.37544"
     inkscape:cx="20.190733"
     inkscape:cy="6.9428791"
     inkscape:window-x="-8"
     inkscape:window-y="-8"
     inkscape:window-maximized="1"
     inkscape:current-layer="Layer_1" />
  <defs
     id="defs3695">
    <style
       id="style3693">.cls-1{fill:#35424b;}</style>
  </defs>
  <title
     id="title3697">Artboard 1</title>
  <path
     class="cls-1"
     d="M 19.8,10.94 A 9.8,9.8 0 1 0 3.07,17.87 l 0.72,-0.72 v 0 L 5.28,15.66 4.8,15.18 3.32,16.63 a 8.74,8.74 0 0 1 -2.1,-5.69 8.83,8.83 0 0 1 0.05,-1 h 1.9 V 9.3 H 1.38 A 8.76,8.76 0 0 1 3.78,4.76 L 5.07,6 5.55,5.52 4.28,4.29 A 8.74,8.74 0 0 1 9.66,2.17 v 2.14 h 0.68 V 2.17 a 8.74,8.74 0 0 1 5.34,2.09 L 14.45,5.5 14.93,5.98 16.18,4.73 A 8.77,8.77 0 0 1 18.62,9.3 H 16.83 V 10 h 1.89 a 8.83,8.83 0 0 1 0.05,1 8.74,8.74 0 0 1 -2.13,5.72 l -1.44,-1.44 -0.48,0.48 1.64,1.64 v 0 l 0.54,0.54 a 9.77,9.77 0 0 0 2.9,-7 z"
     id="path3699"
     style="fill:#ffffff"
     inkscape:connector-curvature="0" />
  <path
     class="cls-1"
     d="m 15.9,7.77 c 0,0 -4.65,0.86 -5.4,1.17 A 1.57,1.57 0 1 0 11.41,11 C 12.15,10.65 15.9,7.77 15.9,7.77 Z"
     id="path3701"
     style="fill:#ffffff"
     inkscape:connector-curvature="0" />
  <rect
     class="cls-1"
     x="6.1700001"
     y="17.219999"
     width="7.79"
     height="1.64"
     id="rect3703"
     style="fill:#ffffff" />
</svg>
