<?xml version="1.0" encoding="UTF-8"?>
<!-- Generator: Adobe Illustrator 21.0.0, SVG Export Plug-In . SVG Version: 6.00 Build 0)  -->
<svg version="1.1" id="Layer_1" xmlns="http://www.w3.org/2000/svg" xmlns:xlink="http://www.w3.org/1999/xlink" x="0px" y="0px" viewBox="0 0 20 20" style="enable-background:new 0 0 20 20;" xml:space="preserve">
<style type="text/css">
	.st0{fill:#35424B;}
</style>
<g>
	<g>
		<path class="st0" d="M17.8,17.6H2.4c-0.2,0-0.4-0.2-0.4-0.4V4.9c0-0.2,0.2-0.4,0.4-0.4h15.5c0.2,0,0.4,0.2,0.4,0.4v12.3    C18.2,17.4,18.1,17.6,17.8,17.6L17.8,17.6z M2.7,16.8h14.7V5.2H2.7V16.8L2.7,16.8z"/>
	</g>
	<g>
		<path class="st0" d="M14.9,6.5c-0.2,0-0.4-0.2-0.4-0.4V3.6c0-0.2,0.2-0.4,0.4-0.4c0.2,0,0.4,0.2,0.4,0.4v2.5    C15.3,6.3,15.2,6.5,14.9,6.5L14.9,6.5z"/>
	</g>
	<g>
		<path class="st0" d="M5.3,6.5c-0.2,0-0.4-0.2-0.4-0.4V3.6c0-0.2,0.2-0.4,0.4-0.4c0.2,0,0.4,0.2,0.4,0.4v2.5    C5.7,6.3,5.5,6.5,5.3,6.5L5.3,6.5z"/>
	</g>
	<g>
		<path class="st0" d="M17.8,9.3H2.5c-0.2,0-0.4-0.2-0.4-0.4c0-0.2,0.2-0.4,0.4-0.4h15.3c0.2,0,0.4,0.2,0.4,0.4    C18.2,9.1,18,9.3,17.8,9.3L17.8,9.3z"/>
	</g>
	<polygon class="st0" points="5.9,10.8 4.4,10.8 4.4,12.3 5.9,12.3 5.9,10.8  "/>
	<polygon class="st0" points="8.4,10.8 7,10.8 7,12.3 8.4,12.3 8.4,10.8  "/>
	<polygon class="st0" points="10.9,10.8 9.5,10.8 9.5,12.3 10.9,12.3 10.9,10.8  "/>
	<polygon class="st0" points="13.5,10.8 12,10.8 12,12.3 13.5,12.3 13.5,10.8  "/>
	<polygon class="st0" points="16,10.8 14.6,10.8 14.6,12.3 16,12.3 16,10.8  "/>
	<polygon class="st0" points="5.9,13.2 4.4,13.2 4.4,14.7 5.9,14.7 5.9,13.2  "/>
	<polygon class="st0" points="8.4,13.2 7,13.2 7,14.7 8.4,14.7 8.4,13.2  "/>
	<polygon class="st0" points="10.9,13.2 9.5,13.2 9.5,14.7 10.9,14.7 10.9,13.2  "/>
	<polygon class="st0" points="13.5,13.2 12,13.2 12,14.7 13.5,14.7 13.5,13.2  "/>
	<polygon class="st0" points="16,13.2 14.6,13.2 14.6,14.7 16,14.7 16,13.2  "/>
</g>
</svg>