<?xml version="1.0" encoding="UTF-8"?>
<!-- Generator: Adobe Illustrator 21.0.0, SVG Export Plug-In . SVG Version: 6.00 Build 0)  -->
<svg version="1.1" id="Layer_1" xmlns="http://www.w3.org/2000/svg" xmlns:xlink="http://www.w3.org/1999/xlink" x="0px" y="0px" viewBox="0 0 20 20" style="enable-background:new 0 0 20 20;" xml:space="preserve">
<style type="text/css">
	.st0{fill:#35424B;}
	.st1{fill:#FFFFFF;}
</style>
<path class="st0" d="M19.4,7.8H18c-0.3,0-0.5-0.2-0.7-0.4l-1.4-2.6c-0.3-0.6-1-1-1.7-1H5.8c-0.7,0-1.3,0.4-1.7,1L2.7,7.4  C2.6,7.6,2.4,7.8,2.1,7.8H0.7C0.3,7.8,0,8,0,8.4v1C0,9.6,0.2,9.9,0.5,10l1,0.4v5.4c0,0.8,0.7,1.5,1.5,1.5h0.7c0.8,0,1.5-0.7,1.5-1.5  v-0.4h9.6v0.4c0,0.8,0.7,1.5,1.5,1.5H17c0.8,0,1.5-0.7,1.5-1.5v-5.4l1-0.4C19.8,9.9,20,9.6,20,9.4v-1C20,8,19.7,7.8,19.4,7.8z"/>
<path class="st1" d="M5.2,10.9l-2-0.3c-0.1,0-0.2,0-0.2,0.1c-0.1,0.1-0.1,0.1-0.1,0.2c0,0.1,0,0.2,0.1,0.2c0.1,0.1,0.1,0.1,0.2,0.1  l2,0.3c0.3,0,0.6,0.3,0.6,0.7v0.2H3.1c-0.2,0-0.3,0.1-0.3,0.3s0.1,0.3,0.3,0.3h3.2v-0.8C6.4,11.6,5.9,11,5.2,10.9z"/>
<path class="st1" d="M14.6,5.6c-0.1-0.2-0.4-0.4-0.7-0.4H6.1c-0.3,0-0.5,0.2-0.7,0.4L3.8,8.4h12.3L14.6,5.6z"/>
<path class="st1" d="M17.2,12.7c0-0.2-0.1-0.3-0.3-0.3h-2.6v-0.2c0-0.3,0.3-0.6,0.6-0.7l2-0.3c0.1,0,0.2-0.1,0.2-0.1  c0.1-0.1,0.1-0.2,0.1-0.2c0-0.1-0.1-0.2-0.1-0.2c-0.1-0.1-0.2-0.1-0.2-0.1l-2,0.3c-0.7,0.1-1.2,0.7-1.2,1.3v0.8h3.2  C17.1,13.1,17.2,12.9,17.2,12.7z"/>
<path class="st1" d="M7.6,12.8C7.6,12.9,7.6,12.9,7.6,12.8c0,0.1,0,0.1,0,0.1c0,0,0,0,0,0.1c0,0,0,0,0,0c0,0,0.1,0,0.1,0.1  c0,0,0,0,0,0c0,0,0.1,0,0.1,0h4.2c0,0,0,0,0,0c0,0,0,0,0.1,0c0,0,0,0,0.1,0c0,0,0,0,0.1,0c0,0,0,0,0,0c0,0,0,0,0-0.1c0,0,0,0,0-0.1  c0,0,0,0,0,0l0.2-2H7.3L7.6,12.8z M8.2,12.5l-0.1-1H12l-0.1,1H8.2z"/>
</svg>