<?xml version="1.0" encoding="UTF-8"?>
<!-- Generator: Adobe Illustrator 21.0.0, SVG Export Plug-In . SVG Version: 6.00 Build 0)  -->
<svg version="1.1" id="Layer_1" xmlns="http://www.w3.org/2000/svg" xmlns:xlink="http://www.w3.org/1999/xlink" x="0px" y="0px" viewBox="0 0 20 20" style="enable-background:new 0 0 20 20;" xml:space="preserve">
<style type="text/css">
	.st0{fill:#35424B;}
</style>
<g>
	<path class="st0" d="M19.8,10.9c0-5.4-4.4-9.8-9.8-9.8s-9.8,4.4-9.8,9.8c0,2.7,1.1,5.2,2.9,6.9l0.7-0.7c0,0,0,0,0,0l1.5-1.5   l-0.5-0.5l-1.5,1.5c-1.3-1.5-2.1-3.5-2.1-5.7c0-0.3,0-0.6,0.1-1h1.9V9.3H1.4C1.7,7.5,2.6,6,3.8,4.8L5.1,6l0.5-0.5L4.3,4.3   c1.5-1.3,3.3-2,5.4-2.1v2.1h0.7V2.2c2,0.1,3.9,0.9,5.3,2.1l-1.2,1.2L14.9,6l1.3-1.3c1.2,1.2,2.1,2.8,2.4,4.6h-1.8V10h1.9   c0,0.3,0.1,0.6,0.1,1c0,2.2-0.8,4.2-2.1,5.7l-1.4-1.4l-0.5,0.5l1.6,1.6l0,0l0.5,0.5C18.7,16.1,19.8,13.6,19.8,10.9z"/>
	<path class="st0" d="M15.9,7.8c0,0-4.6,0.9-5.4,1.2c-0.4-0.1-0.8-0.1-1.2,0c-0.8,0.4-1.1,1.3-0.8,2.1c0.4,0.8,1.3,1.1,2.1,0.8   c0.4-0.2,0.7-0.5,0.8-0.8C12.1,10.6,15.9,7.8,15.9,7.8z"/>
	<rect x="6.2" y="17.2" class="st0" width="7.8" height="1.6"/>
</g>
</svg>