<?xml version="1.0" encoding="UTF-8"?>
<!-- Generator: Adobe Illustrator 21.0.0, SVG Export Plug-In . SVG Version: 6.00 Build 0)  -->
<svg version="1.1" id="Layer_1" xmlns="http://www.w3.org/2000/svg" xmlns:xlink="http://www.w3.org/1999/xlink" x="0px" y="0px" viewBox="0 0 20 20" style="enable-background:new 0 0 20 20;" xml:space="preserve">
<style type="text/css">
	.st0{fill:#35424B;}
</style>
<g>
	<g>
		<path class="st0" d="M15.9,19.4c-0.1,0-0.2,0-0.2-0.1L10,15.2l-5.6,4.1c-0.1,0.1-0.3,0.1-0.5,0c-0.1-0.1-0.2-0.3-0.1-0.5l2.1-6.6    L0.3,8.2C0.1,8.1,0.1,7.9,0.1,7.7s0.2-0.3,0.4-0.3h6.9l2.1-6.6C9.7,0.7,9.8,0.6,10,0.6l0,0c0.2,0,0.3,0.1,0.4,0.3l2.1,6.6h6.9    c0.2,0,0.3,0.1,0.4,0.3c0.1,0.2,0,0.4-0.1,0.5l-5.6,4.1l2.1,6.6c0.1,0.2,0,0.4-0.1,0.5C16,19.4,15.9,19.4,15.9,19.4L15.9,19.4z     M1.8,8.3l4.8,3.5c0.1,0.1,0.2,0.3,0.1,0.5l-1.8,5.7l4.8-3.5c0.1-0.1,0.3-0.1,0.5,0l4.8,3.5l-1.8-5.7c-0.1-0.2,0-0.4,0.1-0.5    l4.8-3.5h-6c-0.2,0-0.3-0.1-0.4-0.3L10,2.3L8.2,8C8.1,8.1,7.9,8.3,7.8,8.3H1.8L1.8,8.3z"/>
	</g>
</g>
</svg>